<?xml version="1.0" encoding="UTF-8" standalone="no"?>
<!DOCTYPE svg PUBLIC "-//W3C//DTD SVG 1.1//EN"
 "http://www.w3.org/Graphics/SVG/1.1/DTD/svg11.dtd">
<!-- Generated by graphviz version 2.47.0 (20210316.0004)
 -->
<!-- Title: dependencies Pages: 1 -->
<svg width="504pt" height="211pt"
 viewBox="0.00 0.00 504.00 211.00" xmlns="http://www.w3.org/2000/svg" xmlns:xlink="http://www.w3.org/1999/xlink">
<g id="graph0" class="graph" transform="scale(1 1) rotate(0) translate(4 207)">
<title>dependencies</title>
<polygon fill="white" stroke="transparent" points="-4,4 -4,-207 500,-207 500,4 -4,4"/>
<text text-anchor="start" x="227.01" y="-42.4" font-family="Times-12" font-weight="bold" font-size="14.00">Legend</text>
<polygon fill="#ffffb3" stroke="transparent" points="14,-10 14,-30 34,-30 34,-10 14,-10"/>
<text text-anchor="start" x="37.63" y="-15.4" font-family="Times-12" font-size="14.00"> &#160;Declarations</text>
<polygon fill="#8dd3c7" stroke="transparent" points="127,-10 127,-30 147,-30 147,-10 127,-10"/>
<text text-anchor="start" x="150.73" y="-15.4" font-family="Times-12" font-size="14.00"> &#160;Module</text>
<polygon fill="#80b1d3" stroke="transparent" points="213,-10 213,-30 233,-30 233,-10 213,-10"/>
<text text-anchor="start" x="236.78" y="-15.4" font-family="Times-12" font-size="14.00"> &#160;Bootstrap</text>
<polygon fill="#fdb462" stroke="transparent" points="310,-10 310,-30 330,-30 330,-10 310,-10"/>
<text text-anchor="start" x="333.67" y="-15.4" font-family="Times-12" font-size="14.00"> &#160;Providers</text>
<polygon fill="#fb8072" stroke="transparent" points="406,-10 406,-30 426,-30 426,-10 406,-10"/>
<text text-anchor="start" x="429.73" y="-15.4" font-family="Times-12" font-size="14.00"> &#160;Exports</text>
<g id="clust1" class="cluster">
<title>cluster_MailModule</title>
<polygon fill="none" stroke="black" stroke-dasharray="1,5" points="109,-70 109,-195 387,-195 387,-70 109,-70"/>
</g>
<g id="clust6" class="cluster">
<title>cluster_MailModule_providers</title>
<polygon fill="none" stroke="black" points="117,-78 117,-130 379,-130 379,-78 117,-78"/>
</g>
<!-- MailHelper -->
<g id="node1" class="node">
<title>MailHelper</title>
<ellipse fill="#fdb462" stroke="black" cx="315" cy="-104" rx="55.59" ry="18"/>
<text text-anchor="middle" x="315" y="-99.8" font-family="Times,serif" font-size="14.00">MailHelper</text>
</g>
<!-- MailModule -->
<g id="node3" class="node">
<title>MailModule</title>
<polygon fill="#8dd3c7" stroke="black" points="291.99,-187 288.99,-191 267.99,-191 264.99,-187 206.01,-187 206.01,-151 291.99,-151 291.99,-187"/>
<text text-anchor="middle" x="249" y="-164.8" font-family="Times,serif" font-size="14.00">MailModule</text>
</g>
<!-- MailHelper&#45;&gt;MailModule -->
<g id="edge1" class="edge">
<title>MailHelper&#45;&gt;MailModule</title>
<path fill="none" stroke="black" d="M275.72,-116.84C275.72,-116.84 275.72,-140.52 275.72,-140.52"/>
<polygon fill="black" stroke="black" points="272.22,-140.52 275.72,-150.52 279.22,-140.52 272.22,-140.52"/>
</g>
<!-- MailService -->
<g id="node2" class="node">
<title>MailService</title>
<ellipse fill="#fdb462" stroke="black" cx="183" cy="-104" rx="58.46" ry="18"/>
<text text-anchor="middle" x="183" y="-99.8" font-family="Times,serif" font-size="14.00">MailService</text>
</g>
<!-- MailService&#45;&gt;MailModule -->
<g id="edge2" class="edge">
<title>MailService&#45;&gt;MailModule</title>
<path fill="none" stroke="black" d="M223.62,-117.15C223.62,-117.15 223.62,-140.69 223.62,-140.69"/>
<polygon fill="black" stroke="black" points="220.12,-140.69 223.62,-150.69 227.12,-140.69 220.12,-140.69"/>
</g>
</g>
</svg>
