<?xml version="1.0" encoding="UTF-8" standalone="no"?>
<!DOCTYPE svg PUBLIC "-//W3C//DTD SVG 1.1//EN"
 "http://www.w3.org/Graphics/SVG/1.1/DTD/svg11.dtd">
<!-- Generated by graphviz version 2.47.0 (20210316.0004)
 -->
<!-- Title: dependencies Pages: 1 -->
<svg width="843pt" height="211pt"
 viewBox="0.00 0.00 843.00 211.00" xmlns="http://www.w3.org/2000/svg" xmlns:xlink="http://www.w3.org/1999/xlink">
<g id="graph0" class="graph" transform="scale(1 1) rotate(0) translate(4 207)">
<title>dependencies</title>
<polygon fill="white" stroke="transparent" points="-4,4 -4,-207 839,-207 839,4 -4,4"/>
<text text-anchor="start" x="396.51" y="-42.4" font-family="Times-12" font-weight="bold" font-size="14.00">Legend</text>
<polygon fill="#ffffb3" stroke="transparent" points="183.5,-10 183.5,-30 203.5,-30 203.5,-10 183.5,-10"/>
<text text-anchor="start" x="207.13" y="-15.4" font-family="Times-12" font-size="14.00"> &#160;Declarations</text>
<polygon fill="#8dd3c7" stroke="transparent" points="296.5,-10 296.5,-30 316.5,-30 316.5,-10 296.5,-10"/>
<text text-anchor="start" x="320.23" y="-15.4" font-family="Times-12" font-size="14.00"> &#160;Module</text>
<polygon fill="#80b1d3" stroke="transparent" points="382.5,-10 382.5,-30 402.5,-30 402.5,-10 382.5,-10"/>
<text text-anchor="start" x="406.28" y="-15.4" font-family="Times-12" font-size="14.00"> &#160;Bootstrap</text>
<polygon fill="#fdb462" stroke="transparent" points="479.5,-10 479.5,-30 499.5,-30 499.5,-10 479.5,-10"/>
<text text-anchor="start" x="503.17" y="-15.4" font-family="Times-12" font-size="14.00"> &#160;Providers</text>
<polygon fill="#fb8072" stroke="transparent" points="575.5,-10 575.5,-30 595.5,-30 595.5,-10 575.5,-10"/>
<text text-anchor="start" x="599.23" y="-15.4" font-family="Times-12" font-size="14.00"> &#160;Exports</text>
<g id="clust1" class="cluster">
<title>cluster_AuthModule</title>
<polygon fill="none" stroke="black" stroke-dasharray="1,5" points="8,-70 8,-195 827,-195 827,-70 8,-70"/>
</g>
<g id="clust3" class="cluster">
<title>cluster_AuthModule_imports</title>
<polygon fill="none" stroke="black" points="717,-78 717,-130 819,-130 819,-78 717,-78"/>
</g>
<g id="clust6" class="cluster">
<title>cluster_AuthModule_providers</title>
<polygon fill="none" stroke="black" points="16,-78 16,-130 709,-130 709,-78 16,-78"/>
</g>
<!-- MailModule -->
<g id="node1" class="node">
<title>MailModule</title>
<polygon fill="#8dd3c7" stroke="black" points="810.99,-122 807.99,-126 786.99,-126 783.99,-122 725.01,-122 725.01,-86 810.99,-86 810.99,-122"/>
<text text-anchor="middle" x="768" y="-99.8" font-family="Times,serif" font-size="14.00">MailModule</text>
</g>
<!-- AuthModule -->
<g id="node2" class="node">
<title>AuthModule</title>
<polygon fill="#8dd3c7" stroke="black" points="465.55,-187 462.55,-191 441.55,-191 438.55,-187 378.45,-187 378.45,-151 465.55,-151 465.55,-187"/>
<text text-anchor="middle" x="422" y="-164.8" font-family="Times,serif" font-size="14.00">AuthModule</text>
</g>
<!-- MailModule&#45;&gt;AuthModule -->
<g id="edge1" class="edge">
<title>MailModule&#45;&gt;AuthModule</title>
<path fill="none" stroke="black" d="M768,-122.28C768,-143.32 768,-175 768,-175 768,-175 475.82,-175 475.82,-175"/>
<polygon fill="black" stroke="black" points="475.82,-171.5 465.82,-175 475.82,-178.5 475.82,-171.5"/>
</g>
<!-- ClientsService -->
<g id="node3" class="node">
<title>ClientsService</title>
<ellipse fill="#fdb462" stroke="black" cx="634" cy="-104" rx="67.21" ry="18"/>
<text text-anchor="middle" x="634" y="-99.8" font-family="Times,serif" font-size="14.00">ClientsService</text>
</g>
<!-- ClientsService&#45;&gt;AuthModule -->
<g id="edge2" class="edge">
<title>ClientsService&#45;&gt;AuthModule</title>
<path fill="none" stroke="black" d="M634,-122.02C634,-139.37 634,-163 634,-163 634,-163 475.67,-163 475.67,-163"/>
<polygon fill="black" stroke="black" points="475.67,-159.5 465.67,-163 475.67,-166.5 475.67,-159.5"/>
</g>
<!-- LogsService -->
<g id="node4" class="node">
<title>LogsService</title>
<ellipse fill="#fdb462" stroke="black" cx="489" cy="-104" rx="59.11" ry="18"/>
<text text-anchor="middle" x="489" y="-99.8" font-family="Times,serif" font-size="14.00">LogsService</text>
</g>
<!-- LogsService&#45;&gt;AuthModule -->
<g id="edge3" class="edge">
<title>LogsService&#45;&gt;AuthModule</title>
<path fill="none" stroke="black" d="M447.73,-117.15C447.73,-117.15 447.73,-140.69 447.73,-140.69"/>
<polygon fill="black" stroke="black" points="444.23,-140.69 447.73,-150.69 451.23,-140.69 444.23,-140.69"/>
</g>
<!-- MailHelper -->
<g id="node5" class="node">
<title>MailHelper</title>
<ellipse fill="#fdb462" stroke="black" cx="356" cy="-104" rx="55.59" ry="18"/>
<text text-anchor="middle" x="356" y="-99.8" font-family="Times,serif" font-size="14.00">MailHelper</text>
</g>
<!-- MailHelper&#45;&gt;AuthModule -->
<g id="edge4" class="edge">
<title>MailHelper&#45;&gt;AuthModule</title>
<path fill="none" stroke="black" d="M394.89,-117.15C394.89,-117.15 394.89,-140.69 394.89,-140.69"/>
<polygon fill="black" stroke="black" points="391.39,-140.69 394.89,-150.69 398.39,-140.69 391.39,-140.69"/>
</g>
<!-- MailService -->
<g id="node6" class="node">
<title>MailService</title>
<ellipse fill="#fdb462" stroke="black" cx="224" cy="-104" rx="58.46" ry="18"/>
<text text-anchor="middle" x="224" y="-99.8" font-family="Times,serif" font-size="14.00">MailService</text>
</g>
<!-- MailService&#45;&gt;AuthModule -->
<g id="edge5" class="edge">
<title>MailService&#45;&gt;AuthModule</title>
<path fill="none" stroke="black" d="M224,-122.02C224,-139.37 224,-163 224,-163 224,-163 368.06,-163 368.06,-163"/>
<polygon fill="black" stroke="black" points="368.06,-166.5 378.06,-163 368.06,-159.5 368.06,-166.5"/>
</g>
<!-- UsersService -->
<g id="node7" class="node">
<title>UsersService</title>
<ellipse fill="#fdb462" stroke="black" cx="86" cy="-104" rx="61.95" ry="18"/>
<text text-anchor="middle" x="86" y="-99.8" font-family="Times,serif" font-size="14.00">UsersService</text>
</g>
<!-- UsersService&#45;&gt;AuthModule -->
<g id="edge6" class="edge">
<title>UsersService&#45;&gt;AuthModule</title>
<path fill="none" stroke="black" d="M86,-122.28C86,-143.32 86,-175 86,-175 86,-175 368.42,-175 368.42,-175"/>
<polygon fill="black" stroke="black" points="368.42,-178.5 378.42,-175 368.42,-171.5 368.42,-178.5"/>
</g>
</g>
</svg>
