<?xml version="1.0" encoding="UTF-8" standalone="no"?>
<!DOCTYPE svg PUBLIC "-//W3C//DTD SVG 1.1//EN"
 "http://www.w3.org/Graphics/SVG/1.1/DTD/svg11.dtd">
<!-- Generated by graphviz version 2.47.0 (20210316.0004)
 -->
<!-- Title: dependencies Pages: 1 -->
<svg width="504pt" height="284pt"
 viewBox="0.00 0.00 504.00 284.00" xmlns="http://www.w3.org/2000/svg" xmlns:xlink="http://www.w3.org/1999/xlink">
<g id="graph0" class="graph" transform="scale(1 1) rotate(0) translate(4 280)">
<title>dependencies</title>
<polygon fill="white" stroke="transparent" points="-4,4 -4,-280 500,-280 500,4 -4,4"/>
<text text-anchor="start" x="227.01" y="-42.4" font-family="Times-12" font-weight="bold" font-size="14.00">Legend</text>
<polygon fill="#ffffb3" stroke="transparent" points="14,-10 14,-30 34,-30 34,-10 14,-10"/>
<text text-anchor="start" x="37.63" y="-15.4" font-family="Times-12" font-size="14.00"> &#160;Declarations</text>
<polygon fill="#8dd3c7" stroke="transparent" points="127,-10 127,-30 147,-30 147,-10 127,-10"/>
<text text-anchor="start" x="150.73" y="-15.4" font-family="Times-12" font-size="14.00"> &#160;Module</text>
<polygon fill="#80b1d3" stroke="transparent" points="213,-10 213,-30 233,-30 233,-10 213,-10"/>
<text text-anchor="start" x="236.78" y="-15.4" font-family="Times-12" font-size="14.00"> &#160;Bootstrap</text>
<polygon fill="#fdb462" stroke="transparent" points="310,-10 310,-30 330,-30 330,-10 310,-10"/>
<text text-anchor="start" x="333.67" y="-15.4" font-family="Times-12" font-size="14.00"> &#160;Providers</text>
<polygon fill="#fb8072" stroke="transparent" points="406,-10 406,-30 426,-30 426,-10 406,-10"/>
<text text-anchor="start" x="429.73" y="-15.4" font-family="Times-12" font-size="14.00"> &#160;Exports</text>
<g id="clust1" class="cluster">
<title>cluster_LogsModule</title>
<polygon fill="none" stroke="black" stroke-dasharray="1,5" points="132.5,-70 132.5,-268 363.5,-268 363.5,-70 132.5,-70"/>
</g>
<g id="clust4" class="cluster">
<title>cluster_LogsModule_exports</title>
<polygon fill="none" stroke="black" points="140.5,-208 140.5,-260 355.5,-260 355.5,-208 140.5,-208"/>
</g>
<g id="clust6" class="cluster">
<title>cluster_LogsModule_providers</title>
<polygon fill="none" stroke="black" points="180.5,-78 180.5,-130 314.5,-130 314.5,-78 180.5,-78"/>
</g>
<!-- LogsModule  -->
<g id="node1" class="node">
<title>LogsModule </title>
<polygon fill="#fb8072" stroke="black" points="347.05,-252 255.95,-252 255.95,-216 347.05,-216 347.05,-252"/>
<text text-anchor="middle" x="301.5" y="-229.8" font-family="Times,serif" font-size="14.00">LogsModule </text>
</g>
<!-- LogsService  -->
<g id="node2" class="node">
<title>LogsService </title>
<polygon fill="#fb8072" stroke="black" points="238.48,-252 148.52,-252 148.52,-216 238.48,-216 238.48,-252"/>
<text text-anchor="middle" x="193.5" y="-229.8" font-family="Times,serif" font-size="14.00">LogsService </text>
</g>
<!-- LogsModule -->
<g id="node3" class="node">
<title>LogsModule</title>
<polygon fill="#8dd3c7" stroke="black" points="291.05,-187 288.05,-191 267.05,-191 264.05,-187 203.95,-187 203.95,-151 291.05,-151 291.05,-187"/>
<text text-anchor="middle" x="247.5" y="-164.8" font-family="Times,serif" font-size="14.00">LogsModule</text>
</g>
<!-- LogsModule&#45;&gt;LogsModule  -->
<g id="edge1" class="edge">
<title>LogsModule&#45;&gt;LogsModule </title>
<path fill="none" stroke="black" stroke-dasharray="5,2" d="M273.62,-187.11C273.62,-187.11 273.62,-205.99 273.62,-205.99"/>
<polygon fill="black" stroke="black" points="270.13,-205.99 273.62,-215.99 277.13,-205.99 270.13,-205.99"/>
</g>
<!-- LogsModule&#45;&gt;LogsService  -->
<g id="edge2" class="edge">
<title>LogsModule&#45;&gt;LogsService </title>
<path fill="none" stroke="black" stroke-dasharray="5,2" d="M220.98,-187.11C220.98,-187.11 220.98,-205.99 220.98,-205.99"/>
<polygon fill="black" stroke="black" points="217.48,-205.99 220.98,-215.99 224.48,-205.99 217.48,-205.99"/>
</g>
<!-- LogsService -->
<g id="node4" class="node">
<title>LogsService</title>
<ellipse fill="#fdb462" stroke="black" cx="247.5" cy="-104" rx="59.11" ry="18"/>
<text text-anchor="middle" x="247.5" y="-99.8" font-family="Times,serif" font-size="14.00">LogsService</text>
</g>
<!-- LogsService&#45;&gt;LogsModule -->
<g id="edge3" class="edge">
<title>LogsService&#45;&gt;LogsModule</title>
<path fill="none" stroke="black" d="M247.5,-122.11C247.5,-122.11 247.5,-140.99 247.5,-140.99"/>
<polygon fill="black" stroke="black" points="244,-140.99 247.5,-150.99 251,-140.99 244,-140.99"/>
</g>
</g>
</svg>
