<?xml version="1.0" encoding="UTF-8" standalone="no"?>
<!DOCTYPE svg PUBLIC "-//W3C//DTD SVG 1.1//EN"
 "http://www.w3.org/Graphics/SVG/1.1/DTD/svg11.dtd">
<!-- Generated by graphviz version 2.47.0 (20210316.0004)
 -->
<!-- Title: dependencies Pages: 1 -->
<svg width="3933pt" height="442pt"
 viewBox="0.00 0.00 3933.00 442.00" xmlns="http://www.w3.org/2000/svg" xmlns:xlink="http://www.w3.org/1999/xlink">
<g id="graph0" class="graph" transform="scale(1 1) rotate(0) translate(4 438)">
<title>dependencies</title>
<polygon fill="white" stroke="transparent" points="-4,4 -4,-438 3929,-438 3929,4 -4,4"/>
<text text-anchor="start" x="1941.51" y="-42.4" font-family="Times-12" font-weight="bold" font-size="14.00">Legend</text>
<polygon fill="#ffffb3" stroke="transparent" points="1728.5,-10 1728.5,-30 1748.5,-30 1748.5,-10 1728.5,-10"/>
<text text-anchor="start" x="1752.13" y="-15.4" font-family="Times-12" font-size="14.00"> &#160;Declarations</text>
<polygon fill="#8dd3c7" stroke="transparent" points="1841.5,-10 1841.5,-30 1861.5,-30 1861.5,-10 1841.5,-10"/>
<text text-anchor="start" x="1865.23" y="-15.4" font-family="Times-12" font-size="14.00"> &#160;Module</text>
<polygon fill="#80b1d3" stroke="transparent" points="1927.5,-10 1927.5,-30 1947.5,-30 1947.5,-10 1927.5,-10"/>
<text text-anchor="start" x="1951.28" y="-15.4" font-family="Times-12" font-size="14.00"> &#160;Bootstrap</text>
<polygon fill="#fdb462" stroke="transparent" points="2024.5,-10 2024.5,-30 2044.5,-30 2044.5,-10 2024.5,-10"/>
<text text-anchor="start" x="2048.17" y="-15.4" font-family="Times-12" font-size="14.00"> &#160;Providers</text>
<polygon fill="#fb8072" stroke="transparent" points="2120.5,-10 2120.5,-30 2140.5,-30 2140.5,-10 2120.5,-10"/>
<text text-anchor="start" x="2144.23" y="-15.4" font-family="Times-12" font-size="14.00"> &#160;Exports</text>
<g id="clust1" class="cluster">
<title>cluster_AppModule</title>
<polygon fill="none" stroke="black" stroke-dasharray="1,5" points="294,-146 294,-426 1000,-426 1000,-146 294,-146"/>
</g>
<g id="clust3" class="cluster">
<title>cluster_AppModule_imports</title>
<polygon fill="none" stroke="black" points="302,-154 302,-274 992,-274 992,-154 302,-154"/>
</g>
<g id="clust4" class="cluster">
<title>cluster_AppModule_exports</title>
<polygon fill="none" stroke="black" points="531,-366 531,-418 635,-418 635,-366 531,-366"/>
</g>
<g id="clust7" class="cluster">
<title>cluster_AuthModule</title>
<polygon fill="none" stroke="black" stroke-dasharray="1,5" points="8,-70 8,-138 717,-138 717,-70 8,-70"/>
</g>
<g id="clust12" class="cluster">
<title>cluster_AuthModule_providers</title>
<polygon fill="none" stroke="black" points="16,-78 16,-130 709,-130 709,-78 16,-78"/>
</g>
<g id="clust13" class="cluster">
<title>cluster_BookerEmployeesModule</title>
<polygon fill="none" stroke="black" stroke-dasharray="1,5" points="1889,-70 1889,-282 2143,-282 2143,-70 1889,-70"/>
</g>
<g id="clust16" class="cluster">
<title>cluster_BookerEmployeesModule_exports</title>
<polygon fill="none" stroke="black" points="1925,-222 1925,-274 2107,-274 2107,-222 1925,-222"/>
</g>
<g id="clust18" class="cluster">
<title>cluster_BookerEmployeesModule_providers</title>
<polygon fill="none" stroke="black" points="1897,-78 1897,-130 2135,-130 2135,-78 1897,-78"/>
</g>
<g id="clust19" class="cluster">
<title>cluster_ClientsModule</title>
<polygon fill="none" stroke="black" stroke-dasharray="1,5" points="1008,-214 1008,-282 1142,-282 1142,-214 1008,-214"/>
</g>
<g id="clust22" class="cluster">
<title>cluster_ClientsModule_exports</title>
<polygon fill="none" stroke="black" points="1016,-222 1016,-274 1134,-274 1134,-222 1016,-222"/>
</g>
<g id="clust25" class="cluster">
<title>cluster_EmployeesModule</title>
<polygon fill="none" stroke="black" stroke-dasharray="1,5" points="2151,-70 2151,-206 2349,-206 2349,-70 2151,-70"/>
</g>
<g id="clust30" class="cluster">
<title>cluster_EmployeesModule_providers</title>
<polygon fill="none" stroke="black" points="2159,-78 2159,-130 2341,-130 2341,-78 2159,-78"/>
</g>
<g id="clust31" class="cluster">
<title>cluster_EstablishmentsModule</title>
<polygon fill="none" stroke="black" stroke-dasharray="1,5" points="2357,-70 2357,-206 2585,-206 2585,-70 2357,-70"/>
</g>
<g id="clust36" class="cluster">
<title>cluster_EstablishmentsModule_providers</title>
<polygon fill="none" stroke="black" points="2365,-78 2365,-130 2577,-130 2577,-78 2365,-78"/>
</g>
<g id="clust37" class="cluster">
<title>cluster_JwtModule</title>
<polygon fill="none" stroke="black" stroke-dasharray="1,5" points="2593,-70 2593,-282 2707,-282 2707,-70 2593,-70"/>
</g>
<g id="clust39" class="cluster">
<title>cluster_JwtModule_imports</title>
<polygon fill="none" stroke="black" points="2615,-78 2615,-130 2685,-130 2685,-78 2615,-78"/>
</g>
<g id="clust40" class="cluster">
<title>cluster_JwtModule_exports</title>
<polygon fill="none" stroke="black" points="2601,-222 2601,-274 2699,-274 2699,-222 2601,-222"/>
</g>
<g id="clust43" class="cluster">
<title>cluster_LogsModule</title>
<polygon fill="none" stroke="black" stroke-dasharray="1,5" points="1150,-214 1150,-282 1381,-282 1381,-214 1150,-214"/>
</g>
<g id="clust46" class="cluster">
<title>cluster_LogsModule_exports</title>
<polygon fill="none" stroke="black" points="1158,-222 1158,-274 1373,-274 1373,-222 1158,-222"/>
</g>
<g id="clust61" class="cluster">
<title>cluster_OrganizationsModule</title>
<polygon fill="none" stroke="black" stroke-dasharray="1,5" points="2715,-70 2715,-206 2935,-206 2935,-70 2715,-70"/>
</g>
<g id="clust66" class="cluster">
<title>cluster_OrganizationsModule_providers</title>
<polygon fill="none" stroke="black" points="2723,-78 2723,-130 2927,-130 2927,-78 2723,-78"/>
</g>
<g id="clust67" class="cluster">
<title>cluster_PlanPricesModule</title>
<polygon fill="none" stroke="black" stroke-dasharray="1,5" points="2943,-70 2943,-282 3137,-282 3137,-70 2943,-70"/>
</g>
<g id="clust70" class="cluster">
<title>cluster_PlanPricesModule_exports</title>
<polygon fill="none" stroke="black" points="2971,-222 2971,-274 3109,-274 3109,-222 2971,-222"/>
</g>
<g id="clust72" class="cluster">
<title>cluster_PlanPricesModule_providers</title>
<polygon fill="none" stroke="black" points="2951,-78 2951,-130 3129,-130 3129,-78 2951,-78"/>
</g>
<g id="clust73" class="cluster">
<title>cluster_PlansModule</title>
<polygon fill="none" stroke="black" stroke-dasharray="1,5" points="3145,-70 3145,-282 3299,-282 3299,-70 3145,-70"/>
</g>
<g id="clust76" class="cluster">
<title>cluster_PlansModule_exports</title>
<polygon fill="none" stroke="black" points="3167,-222 3167,-274 3277,-274 3277,-222 3167,-222"/>
</g>
<g id="clust78" class="cluster">
<title>cluster_PlansModule_providers</title>
<polygon fill="none" stroke="black" points="3153,-78 3153,-130 3291,-130 3291,-78 3153,-78"/>
</g>
<g id="clust79" class="cluster">
<title>cluster_PromoCodesModule</title>
<polygon fill="none" stroke="black" stroke-dasharray="1,5" points="3307,-70 3307,-206 3519,-206 3519,-70 3307,-70"/>
</g>
<g id="clust84" class="cluster">
<title>cluster_PromoCodesModule_providers</title>
<polygon fill="none" stroke="black" points="3315,-78 3315,-130 3511,-130 3511,-78 3315,-78"/>
</g>
<g id="clust85" class="cluster">
<title>cluster_StripeModule</title>
<polygon fill="none" stroke="black" stroke-dasharray="1,5" points="1389,-214 1389,-282 1733,-282 1733,-214 1389,-214"/>
</g>
<g id="clust88" class="cluster">
<title>cluster_StripeModule_exports</title>
<polygon fill="none" stroke="black" points="1587,-222 1587,-274 1725,-274 1725,-222 1587,-222"/>
</g>
<g id="clust90" class="cluster">
<title>cluster_StripeModule_providers</title>
<polygon fill="none" stroke="black" points="1397,-222 1397,-274 1579,-274 1579,-222 1397,-222"/>
</g>
<g id="clust91" class="cluster">
<title>cluster_SubscriptionsModule</title>
<polygon fill="none" stroke="black" stroke-dasharray="1,5" points="3527,-70 3527,-206 3745,-206 3745,-70 3527,-70"/>
</g>
<g id="clust96" class="cluster">
<title>cluster_SubscriptionsModule_providers</title>
<polygon fill="none" stroke="black" points="3535,-78 3535,-130 3737,-130 3737,-78 3535,-78"/>
</g>
<g id="clust97" class="cluster">
<title>cluster_TeamsModule</title>
<polygon fill="none" stroke="black" stroke-dasharray="1,5" points="3753,-70 3753,-206 3917,-206 3917,-70 3753,-70"/>
</g>
<g id="clust102" class="cluster">
<title>cluster_TeamsModule_providers</title>
<polygon fill="none" stroke="black" points="3761,-78 3761,-130 3909,-130 3909,-78 3761,-78"/>
</g>
<g id="clust103" class="cluster">
<title>cluster_ThrottlerConfig</title>
<polygon fill="none" stroke="black" stroke-dasharray="1,5" points="1741,-214 1741,-282 1881,-282 1881,-214 1741,-214"/>
</g>
<g id="clust106" class="cluster">
<title>cluster_ThrottlerConfig_exports</title>
<polygon fill="none" stroke="black" points="1749,-222 1749,-274 1873,-274 1873,-222 1749,-222"/>
</g>
<g id="clust109" class="cluster">
<title>cluster_UsersModule</title>
<polygon fill="none" stroke="black" stroke-dasharray="1,5" points="1008,-290 1008,-358 1134,-358 1134,-290 1008,-290"/>
</g>
<g id="clust112" class="cluster">
<title>cluster_UsersModule_exports</title>
<polygon fill="none" stroke="black" points="1016,-298 1016,-350 1126,-350 1126,-298 1016,-298"/>
</g>
<!-- AuthModule -->
<g id="node1" class="node">
<title>AuthModule</title>
<polygon fill="#8dd3c7" stroke="black" points="397.55,-266 394.55,-270 373.55,-270 370.55,-266 310.45,-266 310.45,-230 397.55,-230 397.55,-266"/>
<text text-anchor="middle" x="354" y="-243.8" font-family="Times,serif" font-size="14.00">AuthModule</text>
</g>
<!-- AppModule -->
<g id="node9" class="node">
<title>AppModule</title>
<polygon fill="#8dd3c7" stroke="black" points="624.66,-342 621.66,-346 600.66,-346 597.66,-342 541.34,-342 541.34,-306 624.66,-306 624.66,-342"/>
<text text-anchor="middle" x="583" y="-319.8" font-family="Times,serif" font-size="14.00">AppModule</text>
</g>
<!-- AuthModule&#45;&gt;AppModule -->
<g id="edge1" class="edge">
<title>AuthModule&#45;&gt;AppModule</title>
<path fill="none" stroke="black" d="M354,-266.03C354,-290.98 354,-333 354,-333 354,-333 531.26,-333 531.26,-333"/>
<polygon fill="black" stroke="black" points="531.26,-336.5 541.26,-333 531.26,-329.5 531.26,-336.5"/>
</g>
<!-- ClientsModule -->
<g id="node2" class="node">
<title>ClientsModule</title>
<polygon fill="#8dd3c7" stroke="black" points="645.72,-198 642.72,-202 621.72,-202 618.72,-198 546.28,-198 546.28,-162 645.72,-162 645.72,-198"/>
<text text-anchor="middle" x="596" y="-175.8" font-family="Times,serif" font-size="14.00">ClientsModule</text>
</g>
<!-- ClientsModule&#45;&gt;AppModule -->
<g id="edge2" class="edge">
<title>ClientsModule&#45;&gt;AppModule</title>
<path fill="none" stroke="black" d="M598.68,-198.24C598.68,-198.24 598.68,-295.91 598.68,-295.91"/>
<polygon fill="black" stroke="black" points="595.18,-295.91 598.68,-305.91 602.18,-295.91 595.18,-295.91"/>
</g>
<!-- ClientsModule  -->
<g id="node19" class="node">
<title>ClientsModule </title>
<polygon fill="#fb8072" stroke="black" points="1126.22,-266 1023.78,-266 1023.78,-230 1126.22,-230 1126.22,-266"/>
<text text-anchor="middle" x="1075" y="-243.8" font-family="Times,serif" font-size="14.00">ClientsModule </text>
</g>
<!-- ClientsModule&#45;&gt;ClientsModule  -->
<g id="edge18" class="edge">
<title>ClientsModule&#45;&gt;ClientsModule </title>
<path fill="none" stroke="black" stroke-dasharray="5,2" d="M639.27,-198.02C639.27,-215.37 639.27,-239 639.27,-239 639.27,-239 1013.73,-239 1013.73,-239"/>
<polygon fill="black" stroke="black" points="1013.73,-242.5 1023.73,-239 1013.73,-235.5 1013.73,-242.5"/>
</g>
<!-- LogsModule -->
<g id="node3" class="node">
<title>LogsModule</title>
<polygon fill="#8dd3c7" stroke="black" points="750.55,-198 747.55,-202 726.55,-202 723.55,-198 663.45,-198 663.45,-162 750.55,-162 750.55,-198"/>
<text text-anchor="middle" x="707" y="-175.8" font-family="Times,serif" font-size="14.00">LogsModule</text>
</g>
<!-- LogsModule&#45;&gt;AppModule -->
<g id="edge3" class="edge">
<title>LogsModule&#45;&gt;AppModule</title>
<path fill="none" stroke="black" d="M728.89,-198.14C728.89,-236.23 728.89,-321 728.89,-321 728.89,-321 634.81,-321 634.81,-321"/>
<polygon fill="black" stroke="black" points="634.81,-317.5 624.81,-321 634.81,-324.5 634.81,-317.5"/>
</g>
<!-- LogsModule  -->
<g id="node27" class="node">
<title>LogsModule </title>
<polygon fill="#fb8072" stroke="black" points="1364.55,-266 1273.45,-266 1273.45,-230 1364.55,-230 1364.55,-266"/>
<text text-anchor="middle" x="1319" y="-243.8" font-family="Times,serif" font-size="14.00">LogsModule </text>
</g>
<!-- LogsModule&#45;&gt;LogsModule  -->
<g id="edge24" class="edge">
<title>LogsModule&#45;&gt;LogsModule </title>
<path fill="none" stroke="black" stroke-dasharray="5,2" d="M707,-198.14C707,-204.46 707,-210 707,-210 707,-210 1319,-210 1319,-210 1319,-210 1319,-219.89 1319,-219.89"/>
<polygon fill="black" stroke="black" points="1315.5,-219.89 1319,-229.89 1322.5,-219.89 1315.5,-219.89"/>
</g>
<!-- LogsService  -->
<g id="node28" class="node">
<title>LogsService </title>
<polygon fill="#fb8072" stroke="black" points="1255.98,-266 1166.02,-266 1166.02,-230 1255.98,-230 1255.98,-266"/>
<text text-anchor="middle" x="1211" y="-243.8" font-family="Times,serif" font-size="14.00">LogsService </text>
</g>
<!-- LogsModule&#45;&gt;LogsService  -->
<g id="edge25" class="edge">
<title>LogsModule&#45;&gt;LogsService </title>
<path fill="none" stroke="black" stroke-dasharray="5,2" d="M685.11,-198.19C685.11,-206.28 685.11,-214 685.11,-214 685.11,-214 1211,-214 1211,-214 1211,-214 1211,-219.81 1211,-219.81"/>
<polygon fill="black" stroke="black" points="1207.5,-219.81 1211,-229.81 1214.5,-219.81 1207.5,-219.81"/>
</g>
<!-- MailModule -->
<g id="node4" class="node">
<title>MailModule</title>
<polygon fill="#8dd3c7" stroke="black" points="395.99,-198 392.99,-202 371.99,-202 368.99,-198 310.01,-198 310.01,-162 395.99,-162 395.99,-198"/>
<text text-anchor="middle" x="353" y="-175.8" font-family="Times,serif" font-size="14.00">MailModule</text>
</g>
<!-- MailModule&#45;&gt;AuthModule -->
<g id="edge10" class="edge">
<title>MailModule&#45;&gt;AuthModule</title>
<path fill="none" stroke="black" d="M331.67,-198.22C331.67,-198.22 331.67,-219.73 331.67,-219.73"/>
<polygon fill="black" stroke="black" points="328.17,-219.73 331.67,-229.73 335.17,-219.73 328.17,-219.73"/>
</g>
<!-- MailModule&#45;&gt;AppModule -->
<g id="edge4" class="edge">
<title>MailModule&#45;&gt;AppModule</title>
<path fill="none" stroke="black" d="M396.13,-180C401.23,-180 404.66,-180 404.66,-180 404.66,-180 404.66,-324 404.66,-324 404.66,-324 531.19,-324 531.19,-324"/>
<polygon fill="black" stroke="black" points="531.19,-327.5 541.19,-324 531.19,-320.5 531.19,-327.5"/>
</g>
<!-- MongooseConfig -->
<g id="node5" class="node">
<title>MongooseConfig</title>
<polygon fill="#8dd3c7" stroke="black" points="527.99,-198 524.99,-202 503.99,-202 500.99,-198 414.01,-198 414.01,-162 527.99,-162 527.99,-198"/>
<text text-anchor="middle" x="471" y="-175.8" font-family="Times,serif" font-size="14.00">MongooseConfig</text>
</g>
<!-- UsersModule -->
<g id="node8" class="node">
<title>UsersModule</title>
<polygon fill="#8dd3c7" stroke="black" points="517.92,-266 514.92,-270 493.92,-270 490.92,-266 426.08,-266 426.08,-230 517.92,-230 517.92,-266"/>
<text text-anchor="middle" x="472" y="-243.8" font-family="Times,serif" font-size="14.00">UsersModule</text>
</g>
<!-- MongooseConfig&#45;&gt;UsersModule -->
<g id="edge40" class="edge">
<title>MongooseConfig&#45;&gt;UsersModule</title>
<path fill="none" stroke="black" d="M487.24,-198.22C487.24,-198.22 487.24,-219.73 487.24,-219.73"/>
<polygon fill="black" stroke="black" points="483.74,-219.73 487.24,-229.73 490.74,-219.73 483.74,-219.73"/>
</g>
<!-- MongooseConfig&#45;&gt;AppModule -->
<g id="edge5" class="edge">
<title>MongooseConfig&#45;&gt;AppModule</title>
<path fill="none" stroke="black" d="M522.85,-198.21C522.85,-235.06 522.85,-315 522.85,-315 522.85,-315 531.23,-315 531.23,-315"/>
<polygon fill="black" stroke="black" points="531.23,-318.5 541.23,-315 531.23,-311.5 531.23,-318.5"/>
</g>
<!-- StripeModule -->
<g id="node6" class="node">
<title>StripeModule</title>
<polygon fill="#8dd3c7" stroke="black" points="861.49,-198 858.49,-202 837.49,-202 834.49,-198 768.51,-198 768.51,-162 861.49,-162 861.49,-198"/>
<text text-anchor="middle" x="815" y="-175.8" font-family="Times,serif" font-size="14.00">StripeModule</text>
</g>
<!-- StripeModule&#45;&gt;AppModule -->
<g id="edge6" class="edge">
<title>StripeModule&#45;&gt;AppModule</title>
<path fill="none" stroke="black" d="M838.25,-198.15C838.25,-237.67 838.25,-328 838.25,-328 838.25,-328 634.86,-328 634.86,-328"/>
<polygon fill="black" stroke="black" points="634.86,-324.5 624.86,-328 634.86,-331.5 634.86,-324.5"/>
</g>
<!-- STRIPE_CLIENT  -->
<g id="node39" class="node">
<title>STRIPE_CLIENT </title>
<polygon fill="#fb8072" stroke="black" points="1717.43,-266 1594.57,-266 1594.57,-230 1717.43,-230 1717.43,-266"/>
<text text-anchor="middle" x="1656" y="-243.8" font-family="Times,serif" font-size="14.00">STRIPE_CLIENT </text>
</g>
<!-- StripeModule&#45;&gt;STRIPE_CLIENT  -->
<g id="edge35" class="edge">
<title>StripeModule&#45;&gt;STRIPE_CLIENT </title>
<path fill="none" stroke="black" stroke-dasharray="5,2" d="M791.75,-198.17C791.75,-200.45 791.75,-202 791.75,-202 791.75,-202 1656,-202 1656,-202 1656,-202 1656,-219.82 1656,-219.82"/>
<polygon fill="black" stroke="black" points="1652.5,-219.82 1656,-229.82 1659.5,-219.82 1652.5,-219.82"/>
</g>
<!-- ThrottlerConfig -->
<g id="node7" class="node">
<title>ThrottlerConfig</title>
<polygon fill="#8dd3c7" stroke="black" points="984.15,-198 981.15,-202 960.15,-202 957.15,-198 879.85,-198 879.85,-162 984.15,-162 984.15,-198"/>
<text text-anchor="middle" x="932" y="-175.8" font-family="Times,serif" font-size="14.00">ThrottlerConfig</text>
</g>
<!-- ThrottlerConfig&#45;&gt;AppModule -->
<g id="edge7" class="edge">
<title>ThrottlerConfig&#45;&gt;AppModule</title>
<path fill="none" stroke="black" d="M932,-198.08C932,-238.97 932,-335 932,-335 932,-335 634.75,-335 634.75,-335"/>
<polygon fill="black" stroke="black" points="634.75,-331.5 624.75,-335 634.75,-338.5 634.75,-331.5"/>
</g>
<!-- ThrottlerConfig  -->
<g id="node45" class="node">
<title>ThrottlerConfig </title>
<polygon fill="#fb8072" stroke="black" points="1865.15,-266 1756.85,-266 1756.85,-230 1865.15,-230 1865.15,-266"/>
<text text-anchor="middle" x="1811" y="-243.8" font-family="Times,serif" font-size="14.00">ThrottlerConfig </text>
</g>
<!-- ThrottlerConfig&#45;&gt;ThrottlerConfig  -->
<g id="edge39" class="edge">
<title>ThrottlerConfig&#45;&gt;ThrottlerConfig </title>
<path fill="none" stroke="black" stroke-dasharray="5,2" d="M984.35,-180C1173.59,-180 1811,-180 1811,-180 1811,-180 1811,-219.78 1811,-219.78"/>
<polygon fill="black" stroke="black" points="1807.5,-219.78 1811,-229.78 1814.5,-219.78 1807.5,-219.78"/>
</g>
<!-- UsersModule&#45;&gt;AppModule -->
<g id="edge8" class="edge">
<title>UsersModule&#45;&gt;AppModule</title>
<path fill="none" stroke="black" d="M517.86,-257C544.37,-257 572.54,-257 572.54,-257 572.54,-257 572.54,-295.69 572.54,-295.69"/>
<polygon fill="black" stroke="black" points="569.04,-295.69 572.54,-305.69 576.04,-295.69 569.04,-295.69"/>
</g>
<!-- UsersModule  -->
<g id="node46" class="node">
<title>UsersModule </title>
<polygon fill="#fb8072" stroke="black" points="1118.42,-342 1023.58,-342 1023.58,-306 1118.42,-306 1118.42,-342"/>
<text text-anchor="middle" x="1071" y="-319.8" font-family="Times,serif" font-size="14.00">UsersModule </text>
</g>
<!-- UsersModule&#45;&gt;UsersModule  -->
<g id="edge41" class="edge">
<title>UsersModule&#45;&gt;UsersModule </title>
<path fill="none" stroke="black" stroke-dasharray="5,2" d="M518.11,-248C565.67,-248 632.92,-248 632.92,-248 632.92,-248 632.92,-314 632.92,-314 632.92,-314 1013.28,-314 1013.28,-314"/>
<polygon fill="black" stroke="black" points="1013.28,-317.5 1023.28,-314 1013.28,-310.5 1013.28,-317.5"/>
</g>
<!-- AppModule  -->
<g id="node10" class="node">
<title>AppModule </title>
<polygon fill="#fb8072" stroke="black" points="626.66,-410 539.34,-410 539.34,-374 626.66,-374 626.66,-410"/>
<text text-anchor="middle" x="583" y="-387.8" font-family="Times,serif" font-size="14.00">AppModule </text>
</g>
<!-- AppModule&#45;&gt;AppModule  -->
<g id="edge9" class="edge">
<title>AppModule&#45;&gt;AppModule </title>
<path fill="none" stroke="black" stroke-dasharray="5,2" d="M583,-342.22C583,-342.22 583,-363.73 583,-363.73"/>
<polygon fill="black" stroke="black" points="579.5,-363.73 583,-373.73 586.5,-363.73 579.5,-363.73"/>
</g>
<!-- ClientsService -->
<g id="node11" class="node">
<title>ClientsService</title>
<ellipse fill="#fdb462" stroke="black" cx="497" cy="-104" rx="67.21" ry="18"/>
<text text-anchor="middle" x="497" y="-99.8" font-family="Times,serif" font-size="14.00">ClientsService</text>
</g>
<!-- ClientsService&#45;&gt;AuthModule -->
<g id="edge11" class="edge">
<title>ClientsService&#45;&gt;AuthModule</title>
<path fill="none" stroke="black" d="M533.71,-119.43C533.71,-151.41 533.71,-222 533.71,-222 533.71,-222 353.11,-222 353.11,-222 353.11,-222 353.11,-222.79 353.11,-222.79"/>
<polygon fill="black" stroke="black" points="349.61,-219.94 353.11,-229.94 356.61,-219.94 349.61,-219.94"/>
</g>
<!-- ClientsService&#45;&gt;ClientsModule -->
<g id="edge19" class="edge">
<title>ClientsService&#45;&gt;ClientsModule</title>
<path fill="none" stroke="black" d="M555.37,-113.02C555.37,-113.02 555.37,-151.74 555.37,-151.74"/>
<polygon fill="black" stroke="black" points="551.87,-151.74 555.37,-161.74 558.87,-151.74 551.87,-151.74"/>
</g>
<!-- LogsService -->
<g id="node12" class="node">
<title>LogsService</title>
<ellipse fill="#fdb462" stroke="black" cx="642" cy="-104" rx="59.11" ry="18"/>
<text text-anchor="middle" x="642" y="-99.8" font-family="Times,serif" font-size="14.00">LogsService</text>
</g>
<!-- LogsService&#45;&gt;AuthModule -->
<g id="edge12" class="edge">
<title>LogsService&#45;&gt;AuthModule</title>
<path fill="none" stroke="black" d="M654.42,-121.74C654.42,-155.58 654.42,-226 654.42,-226 654.42,-226 374.55,-226 374.55,-226 374.55,-226 374.55,-226.38 374.55,-226.38"/>
<polygon fill="black" stroke="black" points="371.05,-219.83 374.55,-229.83 378.05,-219.83 371.05,-219.83"/>
</g>
<!-- LogsService&#45;&gt;LogsModule -->
<g id="edge26" class="edge">
<title>LogsService&#45;&gt;LogsModule</title>
<path fill="none" stroke="black" d="M682.27,-117.24C682.27,-117.24 682.27,-151.79 682.27,-151.79"/>
<polygon fill="black" stroke="black" points="678.77,-151.79 682.27,-161.79 685.77,-151.79 678.77,-151.79"/>
</g>
<!-- MailHelper -->
<g id="node13" class="node">
<title>MailHelper</title>
<ellipse fill="#fdb462" stroke="black" cx="356" cy="-104" rx="55.59" ry="18"/>
<text text-anchor="middle" x="356" y="-99.8" font-family="Times,serif" font-size="14.00">MailHelper</text>
</g>
<!-- MailHelper&#45;&gt;AuthModule -->
<g id="edge13" class="edge">
<title>MailHelper&#45;&gt;AuthModule</title>
<path fill="none" stroke="black" d="M305.23,-111.64C305.23,-140.2 305.23,-239 305.23,-239 305.23,-239 305.75,-239 305.75,-239"/>
<polygon fill="black" stroke="black" points="300.45,-242.5 310.45,-239 300.45,-235.5 300.45,-242.5"/>
</g>
<!-- MailHelper&#45;&gt;MailModule -->
<g id="edge27" class="edge">
<title>MailHelper&#45;&gt;MailModule</title>
<path fill="none" stroke="black" d="M353,-122.01C353,-122.01 353,-151.85 353,-151.85"/>
<polygon fill="black" stroke="black" points="349.5,-151.85 353,-161.85 356.5,-151.85 349.5,-151.85"/>
</g>
<!-- MailService -->
<g id="node14" class="node">
<title>MailService</title>
<ellipse fill="#fdb462" stroke="black" cx="224" cy="-104" rx="58.46" ry="18"/>
<text text-anchor="middle" x="224" y="-99.8" font-family="Times,serif" font-size="14.00">MailService</text>
</g>
<!-- MailService&#45;&gt;AuthModule -->
<g id="edge14" class="edge">
<title>MailService&#45;&gt;AuthModule</title>
<path fill="none" stroke="black" d="M204.59,-121.08C204.59,-159.23 204.59,-248 204.59,-248 204.59,-248 300.38,-248 300.38,-248"/>
<polygon fill="black" stroke="black" points="300.38,-251.5 310.38,-248 300.38,-244.5 300.38,-251.5"/>
</g>
<!-- MailService&#45;&gt;MailModule -->
<g id="edge28" class="edge">
<title>MailService&#45;&gt;MailModule</title>
<path fill="none" stroke="black" d="M243.41,-121.25C243.41,-143.67 243.41,-180 243.41,-180 243.41,-180 300,-180 300,-180"/>
<polygon fill="black" stroke="black" points="300,-183.5 310,-180 300,-176.5 300,-183.5"/>
</g>
<!-- UsersService -->
<g id="node15" class="node">
<title>UsersService</title>
<ellipse fill="#fdb462" stroke="black" cx="86" cy="-104" rx="61.95" ry="18"/>
<text text-anchor="middle" x="86" y="-99.8" font-family="Times,serif" font-size="14.00">UsersService</text>
</g>
<!-- UsersService&#45;&gt;AuthModule -->
<g id="edge15" class="edge">
<title>UsersService&#45;&gt;AuthModule</title>
<path fill="none" stroke="black" d="M65.34,-121.25C65.34,-161.27 65.34,-257 65.34,-257 65.34,-257 300.16,-257 300.16,-257"/>
<polygon fill="black" stroke="black" points="300.16,-260.5 310.16,-257 300.16,-253.5 300.16,-260.5"/>
</g>
<!-- UsersService&#45;&gt;UsersModule -->
<g id="edge42" class="edge">
<title>UsersService&#45;&gt;UsersModule</title>
<path fill="none" stroke="black" d="M106.66,-121.31C106.66,-153.21 106.66,-218 106.66,-218 106.66,-218 456.76,-218 456.76,-218 456.76,-218 456.76,-219.86 456.76,-219.86"/>
<polygon fill="black" stroke="black" points="453.26,-219.86 456.76,-229.86 460.26,-219.86 453.26,-219.86"/>
</g>
<!-- BookerEmployeesModule  -->
<g id="node16" class="node">
<title>BookerEmployeesModule </title>
<polygon fill="#fb8072" stroke="black" points="2099.47,-266 1932.53,-266 1932.53,-230 2099.47,-230 2099.47,-266"/>
<text text-anchor="middle" x="2016" y="-243.8" font-family="Times,serif" font-size="14.00">BookerEmployeesModule </text>
</g>
<!-- BookerEmployeesModule -->
<g id="node17" class="node">
<title>BookerEmployeesModule</title>
<polygon fill="#8dd3c7" stroke="black" points="2097.47,-198 2094.47,-202 2073.47,-202 2070.47,-198 1934.53,-198 1934.53,-162 2097.47,-162 2097.47,-198"/>
<text text-anchor="middle" x="2016" y="-175.8" font-family="Times,serif" font-size="14.00">BookerEmployeesModule</text>
</g>
<!-- BookerEmployeesModule&#45;&gt;BookerEmployeesModule  -->
<g id="edge16" class="edge">
<title>BookerEmployeesModule&#45;&gt;BookerEmployeesModule </title>
<path fill="none" stroke="black" stroke-dasharray="5,2" d="M2016,-198.22C2016,-198.22 2016,-219.73 2016,-219.73"/>
<polygon fill="black" stroke="black" points="2012.5,-219.73 2016,-229.73 2019.5,-219.73 2012.5,-219.73"/>
</g>
<!-- BookerEmployeesService -->
<g id="node18" class="node">
<title>BookerEmployeesService</title>
<ellipse fill="#fdb462" stroke="black" cx="2016" cy="-104" rx="111.16" ry="18"/>
<text text-anchor="middle" x="2016" y="-99.8" font-family="Times,serif" font-size="14.00">BookerEmployeesService</text>
</g>
<!-- BookerEmployeesService&#45;&gt;BookerEmployeesModule -->
<g id="edge17" class="edge">
<title>BookerEmployeesService&#45;&gt;BookerEmployeesModule</title>
<path fill="none" stroke="black" d="M2016,-122.01C2016,-122.01 2016,-151.85 2016,-151.85"/>
<polygon fill="black" stroke="black" points="2012.5,-151.85 2016,-161.85 2019.5,-151.85 2012.5,-151.85"/>
</g>
<!-- EmployeesService -->
<g id="node20" class="node">
<title>EmployeesService</title>
<ellipse fill="#fdb462" stroke="black" cx="2250" cy="-104" rx="82.8" ry="18"/>
<text text-anchor="middle" x="2250" y="-99.8" font-family="Times,serif" font-size="14.00">EmployeesService</text>
</g>
<!-- EmployeesModule -->
<g id="node21" class="node">
<title>EmployeesModule</title>
<polygon fill="#8dd3c7" stroke="black" points="2310.76,-198 2307.76,-202 2286.76,-202 2283.76,-198 2189.24,-198 2189.24,-162 2310.76,-162 2310.76,-198"/>
<text text-anchor="middle" x="2250" y="-175.8" font-family="Times,serif" font-size="14.00">EmployeesModule</text>
</g>
<!-- EmployeesService&#45;&gt;EmployeesModule -->
<g id="edge20" class="edge">
<title>EmployeesService&#45;&gt;EmployeesModule</title>
<path fill="none" stroke="black" d="M2250,-122.01C2250,-122.01 2250,-151.85 2250,-151.85"/>
<polygon fill="black" stroke="black" points="2246.5,-151.85 2250,-161.85 2253.5,-151.85 2246.5,-151.85"/>
</g>
<!-- EstablishmentsService -->
<g id="node22" class="node">
<title>EstablishmentsService</title>
<ellipse fill="#fdb462" stroke="black" cx="2471" cy="-104" rx="98.43" ry="18"/>
<text text-anchor="middle" x="2471" y="-99.8" font-family="Times,serif" font-size="14.00">EstablishmentsService</text>
</g>
<!-- EstablishmentsModule -->
<g id="node23" class="node">
<title>EstablishmentsModule</title>
<polygon fill="#8dd3c7" stroke="black" points="2543.32,-198 2540.32,-202 2519.32,-202 2516.32,-198 2398.68,-198 2398.68,-162 2543.32,-162 2543.32,-198"/>
<text text-anchor="middle" x="2471" y="-175.8" font-family="Times,serif" font-size="14.00">EstablishmentsModule</text>
</g>
<!-- EstablishmentsService&#45;&gt;EstablishmentsModule -->
<g id="edge21" class="edge">
<title>EstablishmentsService&#45;&gt;EstablishmentsModule</title>
<path fill="none" stroke="black" d="M2471,-122.01C2471,-122.01 2471,-151.85 2471,-151.85"/>
<polygon fill="black" stroke="black" points="2467.5,-151.85 2471,-161.85 2474.5,-151.85 2467.5,-151.85"/>
</g>
<!-- Jwt -->
<g id="node24" class="node">
<title>Jwt</title>
<polygon fill="#8dd3c7" stroke="black" points="2677,-122 2674,-126 2653,-126 2650,-122 2623,-122 2623,-86 2677,-86 2677,-122"/>
<text text-anchor="middle" x="2650" y="-99.8" font-family="Times,serif" font-size="14.00">Jwt</text>
</g>
<!-- JwtModule -->
<g id="node25" class="node">
<title>JwtModule</title>
<polygon fill="#8dd3c7" stroke="black" points="2689.49,-198 2686.49,-202 2665.49,-202 2662.49,-198 2610.51,-198 2610.51,-162 2689.49,-162 2689.49,-198"/>
<text text-anchor="middle" x="2650" y="-175.8" font-family="Times,serif" font-size="14.00">JwtModule</text>
</g>
<!-- Jwt&#45;&gt;JwtModule -->
<g id="edge22" class="edge">
<title>Jwt&#45;&gt;JwtModule</title>
<path fill="none" stroke="black" d="M2650,-122.01C2650,-122.01 2650,-151.85 2650,-151.85"/>
<polygon fill="black" stroke="black" points="2646.5,-151.85 2650,-161.85 2653.5,-151.85 2646.5,-151.85"/>
</g>
<!-- JwtModule  -->
<g id="node26" class="node">
<title>JwtModule </title>
<polygon fill="#fb8072" stroke="black" points="2691.49,-266 2608.51,-266 2608.51,-230 2691.49,-230 2691.49,-266"/>
<text text-anchor="middle" x="2650" y="-243.8" font-family="Times,serif" font-size="14.00">JwtModule </text>
</g>
<!-- JwtModule&#45;&gt;JwtModule  -->
<g id="edge23" class="edge">
<title>JwtModule&#45;&gt;JwtModule </title>
<path fill="none" stroke="black" stroke-dasharray="5,2" d="M2650,-198.22C2650,-198.22 2650,-219.73 2650,-219.73"/>
<polygon fill="black" stroke="black" points="2646.5,-219.73 2650,-229.73 2653.5,-219.73 2646.5,-219.73"/>
</g>
<!-- OrganizationsService -->
<g id="node29" class="node">
<title>OrganizationsService</title>
<ellipse fill="#fdb462" stroke="black" cx="2825" cy="-104" rx="94.32" ry="18"/>
<text text-anchor="middle" x="2825" y="-99.8" font-family="Times,serif" font-size="14.00">OrganizationsService</text>
</g>
<!-- OrganizationsModule -->
<g id="node30" class="node">
<title>OrganizationsModule</title>
<polygon fill="#8dd3c7" stroke="black" points="2894.08,-198 2891.08,-202 2870.08,-202 2867.08,-198 2755.92,-198 2755.92,-162 2894.08,-162 2894.08,-198"/>
<text text-anchor="middle" x="2825" y="-175.8" font-family="Times,serif" font-size="14.00">OrganizationsModule</text>
</g>
<!-- OrganizationsService&#45;&gt;OrganizationsModule -->
<g id="edge29" class="edge">
<title>OrganizationsService&#45;&gt;OrganizationsModule</title>
<path fill="none" stroke="black" d="M2825,-122.01C2825,-122.01 2825,-151.85 2825,-151.85"/>
<polygon fill="black" stroke="black" points="2821.5,-151.85 2825,-161.85 2828.5,-151.85 2821.5,-151.85"/>
</g>
<!-- PlanPricesModule  -->
<g id="node31" class="node">
<title>PlanPricesModule </title>
<polygon fill="#fb8072" stroke="black" points="3101.15,-266 2978.85,-266 2978.85,-230 3101.15,-230 3101.15,-266"/>
<text text-anchor="middle" x="3040" y="-243.8" font-family="Times,serif" font-size="14.00">PlanPricesModule </text>
</g>
<!-- PlanPricesModule -->
<g id="node32" class="node">
<title>PlanPricesModule</title>
<polygon fill="#8dd3c7" stroke="black" points="3099.15,-198 3096.15,-202 3075.15,-202 3072.15,-198 2980.85,-198 2980.85,-162 3099.15,-162 3099.15,-198"/>
<text text-anchor="middle" x="3040" y="-175.8" font-family="Times,serif" font-size="14.00">PlanPricesModule</text>
</g>
<!-- PlanPricesModule&#45;&gt;PlanPricesModule  -->
<g id="edge30" class="edge">
<title>PlanPricesModule&#45;&gt;PlanPricesModule </title>
<path fill="none" stroke="black" stroke-dasharray="5,2" d="M3040,-198.22C3040,-198.22 3040,-219.73 3040,-219.73"/>
<polygon fill="black" stroke="black" points="3036.5,-219.73 3040,-229.73 3043.5,-219.73 3036.5,-219.73"/>
</g>
<!-- PlanPricesService -->
<g id="node33" class="node">
<title>PlanPricesService</title>
<ellipse fill="#fdb462" stroke="black" cx="3040" cy="-104" rx="80.51" ry="18"/>
<text text-anchor="middle" x="3040" y="-99.8" font-family="Times,serif" font-size="14.00">PlanPricesService</text>
</g>
<!-- PlanPricesService&#45;&gt;PlanPricesModule -->
<g id="edge31" class="edge">
<title>PlanPricesService&#45;&gt;PlanPricesModule</title>
<path fill="none" stroke="black" d="M3040,-122.01C3040,-122.01 3040,-151.85 3040,-151.85"/>
<polygon fill="black" stroke="black" points="3036.5,-151.85 3040,-161.85 3043.5,-151.85 3036.5,-151.85"/>
</g>
<!-- PlansModule  -->
<g id="node34" class="node">
<title>PlansModule </title>
<polygon fill="#fb8072" stroke="black" points="3268.88,-266 3175.12,-266 3175.12,-230 3268.88,-230 3268.88,-266"/>
<text text-anchor="middle" x="3222" y="-243.8" font-family="Times,serif" font-size="14.00">PlansModule </text>
</g>
<!-- PlansModule -->
<g id="node35" class="node">
<title>PlansModule</title>
<polygon fill="#8dd3c7" stroke="black" points="3266.88,-198 3263.88,-202 3242.88,-202 3239.88,-198 3177.12,-198 3177.12,-162 3266.88,-162 3266.88,-198"/>
<text text-anchor="middle" x="3222" y="-175.8" font-family="Times,serif" font-size="14.00">PlansModule</text>
</g>
<!-- PlansModule&#45;&gt;PlansModule  -->
<g id="edge32" class="edge">
<title>PlansModule&#45;&gt;PlansModule </title>
<path fill="none" stroke="black" stroke-dasharray="5,2" d="M3222,-198.22C3222,-198.22 3222,-219.73 3222,-219.73"/>
<polygon fill="black" stroke="black" points="3218.5,-219.73 3222,-229.73 3225.5,-219.73 3218.5,-219.73"/>
</g>
<!-- PlansService -->
<g id="node36" class="node">
<title>PlansService</title>
<ellipse fill="#fdb462" stroke="black" cx="3222" cy="-104" rx="60.83" ry="18"/>
<text text-anchor="middle" x="3222" y="-99.8" font-family="Times,serif" font-size="14.00">PlansService</text>
</g>
<!-- PlansService&#45;&gt;PlansModule -->
<g id="edge33" class="edge">
<title>PlansService&#45;&gt;PlansModule</title>
<path fill="none" stroke="black" d="M3222,-122.01C3222,-122.01 3222,-151.85 3222,-151.85"/>
<polygon fill="black" stroke="black" points="3218.5,-151.85 3222,-161.85 3225.5,-151.85 3218.5,-151.85"/>
</g>
<!-- PromoCodesService -->
<g id="node37" class="node">
<title>PromoCodesService</title>
<ellipse fill="#fdb462" stroke="black" cx="3413" cy="-104" rx="89.77" ry="18"/>
<text text-anchor="middle" x="3413" y="-99.8" font-family="Times,serif" font-size="14.00">PromoCodesService</text>
</g>
<!-- PromoCodesModule -->
<g id="node38" class="node">
<title>PromoCodesModule</title>
<polygon fill="#8dd3c7" stroke="black" points="3478.88,-198 3475.88,-202 3454.88,-202 3451.88,-198 3347.12,-198 3347.12,-162 3478.88,-162 3478.88,-198"/>
<text text-anchor="middle" x="3413" y="-175.8" font-family="Times,serif" font-size="14.00">PromoCodesModule</text>
</g>
<!-- PromoCodesService&#45;&gt;PromoCodesModule -->
<g id="edge34" class="edge">
<title>PromoCodesService&#45;&gt;PromoCodesModule</title>
<path fill="none" stroke="black" d="M3413,-122.01C3413,-122.01 3413,-151.85 3413,-151.85"/>
<polygon fill="black" stroke="black" points="3409.5,-151.85 3413,-161.85 3416.5,-151.85 3409.5,-151.85"/>
</g>
<!-- StripePriceService -->
<g id="node40" class="node">
<title>StripePriceService</title>
<ellipse fill="#fdb462" stroke="black" cx="1488" cy="-248" rx="82.8" ry="18"/>
<text text-anchor="middle" x="1488" y="-243.8" font-family="Times,serif" font-size="14.00">StripePriceService</text>
</g>
<!-- StripePriceService&#45;&gt;StripeModule -->
<g id="edge36" class="edge">
<title>StripePriceService&#45;&gt;StripeModule</title>
<path fill="none" stroke="black" d="M1488,-229.94C1488,-218.56 1488,-206 1488,-206 1488,-206 815,-206 815,-206 815,-206 815,-205.21 815,-205.21"/>
<polygon fill="black" stroke="black" points="818.5,-208.06 815,-198.06 811.5,-208.06 818.5,-208.06"/>
</g>
<!-- SubscriptionsService -->
<g id="node41" class="node">
<title>SubscriptionsService</title>
<ellipse fill="#fdb462" stroke="black" cx="3636" cy="-104" rx="92.63" ry="18"/>
<text text-anchor="middle" x="3636" y="-99.8" font-family="Times,serif" font-size="14.00">SubscriptionsService</text>
</g>
<!-- SubscriptionsModule -->
<g id="node42" class="node">
<title>SubscriptionsModule</title>
<polygon fill="#8dd3c7" stroke="black" points="3703.77,-198 3700.77,-202 3679.77,-202 3676.77,-198 3568.23,-198 3568.23,-162 3703.77,-162 3703.77,-198"/>
<text text-anchor="middle" x="3636" y="-175.8" font-family="Times,serif" font-size="14.00">SubscriptionsModule</text>
</g>
<!-- SubscriptionsService&#45;&gt;SubscriptionsModule -->
<g id="edge37" class="edge">
<title>SubscriptionsService&#45;&gt;SubscriptionsModule</title>
<path fill="none" stroke="black" d="M3636,-122.01C3636,-122.01 3636,-151.85 3636,-151.85"/>
<polygon fill="black" stroke="black" points="3632.5,-151.85 3636,-161.85 3639.5,-151.85 3632.5,-151.85"/>
</g>
<!-- TeamsService -->
<g id="node43" class="node">
<title>TeamsService</title>
<ellipse fill="#fdb462" stroke="black" cx="3835" cy="-104" rx="65.97" ry="18"/>
<text text-anchor="middle" x="3835" y="-99.8" font-family="Times,serif" font-size="14.00">TeamsService</text>
</g>
<!-- TeamsModule -->
<g id="node44" class="node">
<title>TeamsModule</title>
<polygon fill="#8dd3c7" stroke="black" points="3883.37,-198 3880.37,-202 3859.37,-202 3856.37,-198 3786.63,-198 3786.63,-162 3883.37,-162 3883.37,-198"/>
<text text-anchor="middle" x="3835" y="-175.8" font-family="Times,serif" font-size="14.00">TeamsModule</text>
</g>
<!-- TeamsService&#45;&gt;TeamsModule -->
<g id="edge38" class="edge">
<title>TeamsService&#45;&gt;TeamsModule</title>
<path fill="none" stroke="black" d="M3835,-122.01C3835,-122.01 3835,-151.85 3835,-151.85"/>
<polygon fill="black" stroke="black" points="3831.5,-151.85 3835,-161.85 3838.5,-151.85 3831.5,-151.85"/>
</g>
</g>
</svg>
